<svg width="683" height="312" viewBox="0 0 683 312" fill="none" xmlns="http://www.w3.org/2000/svg">
<rect width="682.879" height="312" fill="#F6F7F9"/>
<path d="M148.564 152.722L140.734 149.319C135.007 146.815 135.007 138.889 140.734 136.399L148.564 132.996C162.417 127.019 173.528 116.066 179.702 102.3C180.183 101.218 179.392 100 178.208 100H114.639C106.265 100 102.078 100 100.515 102.718C98.9521 105.436 101.058 109.055 105.27 116.293L154.725 201.268C158.888 208.422 160.97 211.998 164.084 212C167.199 212.002 169.285 208.428 173.456 201.28L179.261 191.334C180.081 189.929 180.491 189.226 180.678 188.474C180.845 187.805 180.882 187.111 180.789 186.428C180.684 185.66 180.352 184.917 179.689 183.432C173.52 169.662 162.415 158.705 148.564 152.722Z" fill="url(#paint0_linear_350_264)" fill-opacity="0.8"/>
<path d="M216.061 100H203.228C202.343 100 201.752 100.911 202.112 101.719C204.388 106.777 207.329 111.453 210.824 115.642C213.145 118.424 214.306 119.815 216.186 120.188C217.094 120.368 218.32 120.263 219.184 119.931C220.973 119.244 222.005 117.458 224.071 113.886C226.992 108.836 228.452 106.311 228 104.255C227.76 103.165 227.189 102.175 226.365 101.421C224.812 100 221.895 100 216.061 100Z" fill="url(#paint1_linear_350_264)" fill-opacity="0.8"/>
<path d="M171.203 145.633L174.307 146.982C179.798 149.354 184.201 153.698 186.646 159.156L188.505 163.319C188.738 163.824 189.11 164.251 189.578 164.551C190.046 164.851 190.59 165.01 191.146 165.01C191.702 165.01 192.246 164.851 192.714 164.551C193.182 164.251 193.554 163.824 193.787 163.319L195.536 159.387C198.051 153.791 202.616 149.372 208.292 147.042L211.643 145.655C212.162 145.451 212.607 145.095 212.921 144.635C213.235 144.174 213.403 143.629 213.403 143.072C213.403 142.514 213.235 141.969 212.921 141.509C212.607 141.048 212.162 140.692 211.643 140.489L208.297 139.101C202.621 136.773 198.053 132.357 195.536 126.762L193.781 122.825C193.548 122.321 193.176 121.895 192.709 121.596C192.241 121.297 191.698 121.139 191.143 121.139C190.589 121.139 190.045 121.297 189.578 121.596C189.111 121.895 188.738 122.321 188.505 122.825L186.652 126.992C184.204 132.45 179.799 136.792 174.307 139.161L171.203 140.511C168.933 141.498 168.933 144.64 171.203 145.633Z" fill="#FFB14E"/>
<path d="M280.125 189.072C279.306 189.072 278.57 188.573 278.267 187.813L253.174 124.901C252.65 123.588 253.618 122.16 255.032 122.16H260.022C260.848 122.16 261.589 122.668 261.887 123.439L283.281 178.8H280.881L301.99 123.448C302.286 122.672 303.029 122.16 303.859 122.16H308.85C310.262 122.16 311.229 123.584 310.71 124.896L285.797 187.808C285.495 188.571 284.758 189.072 283.938 189.072H280.125Z" fill="black"/>
<path d="M346.785 189.072C345.727 189.072 344.853 188.249 344.789 187.193L344.327 179.568V159.408C344.327 155.76 343.303 152.944 341.255 150.96C339.271 148.976 336.295 147.984 332.327 147.984C329.767 147.984 327.367 148.528 325.127 149.616C323.361 150.423 321.634 151.688 319.948 153.41C319.173 154.202 317.914 154.312 317.071 153.594L314.266 151.203C313.425 150.486 313.319 149.216 314.095 148.429C316.386 146.104 318.943 144.356 321.767 143.184C325.159 141.712 328.871 140.976 332.903 140.976C339.111 140.976 343.911 142.576 347.303 145.776C350.695 148.976 352.391 153.52 352.391 159.408V187.072C352.391 188.177 351.495 189.072 350.391 189.072H346.785ZM329.255 189.84C325.671 189.84 322.535 189.232 319.847 188.016C317.223 186.736 315.175 184.976 313.703 182.736C312.295 180.496 311.591 177.904 311.591 174.96C311.591 172.336 312.103 170.128 313.127 168.336C314.215 166.48 315.591 165.04 317.255 164.016C318.919 162.928 320.807 162.192 322.919 161.808C325.095 161.36 327.367 161.136 329.735 161.136H345.095V167.28H330.887C329.479 167.28 328.007 167.408 326.471 167.664C324.935 167.92 323.591 168.464 322.439 169.296C321.607 169.936 320.935 170.736 320.423 171.696C319.975 172.656 319.751 173.776 319.751 175.056C319.751 177.552 320.679 179.536 322.535 181.008C324.391 182.48 326.887 183.216 330.023 183.216C332.647 183.216 335.015 182.608 337.127 181.392C339.303 180.176 341.031 178.512 342.311 176.4C343.655 174.224 344.327 171.792 344.327 169.104L347.687 172.56C347.303 175.952 346.279 178.96 344.615 181.584C342.951 184.208 340.807 186.256 338.183 187.728C335.623 189.136 332.647 189.84 329.255 189.84Z" fill="black"/>
<path d="M384.938 189.84C380.65 189.84 376.874 188.784 373.61 186.672C370.41 184.496 367.914 181.552 366.122 177.84C364.33 174.128 363.434 169.968 363.434 165.36C363.434 160.368 364.394 156.048 366.314 152.4C368.234 148.752 370.826 145.936 374.09 143.952C377.354 141.968 380.97 140.976 384.938 140.976C387.946 140.976 390.634 141.584 393.002 142.8C395.37 143.952 397.354 145.552 398.954 147.6C400.618 149.584 401.77 151.824 402.41 154.32L400.106 155.856V124.16C400.106 123.056 401.002 122.16 402.106 122.16H406.17C407.275 122.16 408.17 123.056 408.17 124.16V187.072C408.17 188.177 407.275 189.072 406.17 189.072H402.106C401.002 189.072 400.106 188.177 400.106 187.072V174.96L402.794 175.824C401.962 178.576 400.714 181.008 399.05 183.12C397.386 185.232 395.37 186.896 393.002 188.112C390.634 189.264 387.946 189.84 384.938 189.84ZM386.282 182.352C389.162 182.352 391.69 181.648 393.866 180.24C396.042 178.768 397.738 176.752 398.954 174.192C400.17 171.632 400.778 168.688 400.778 165.36C400.778 162.032 400.17 159.088 398.954 156.528C397.738 153.968 396.042 151.984 393.866 150.576C391.69 149.104 389.162 148.368 386.282 148.368C383.402 148.368 380.842 149.104 378.602 150.576C376.426 151.984 374.698 153.968 373.418 156.528C372.202 159.088 371.594 162.032 371.594 165.36C371.594 168.688 372.202 171.632 373.418 174.192C374.698 176.752 376.426 178.768 378.602 180.24C380.842 181.648 383.402 182.352 386.282 182.352Z" fill="black"/>
<path d="M454.973 189.072C453.915 189.072 453.04 188.249 452.976 187.193L452.514 179.568V159.408C452.514 155.76 451.49 152.944 449.442 150.96C447.458 148.976 444.482 147.984 440.514 147.984C437.954 147.984 435.554 148.528 433.314 149.616C431.548 150.423 429.822 151.688 428.136 153.41C427.361 154.202 426.101 154.312 425.258 153.594L422.454 151.203C421.612 150.486 421.507 149.216 422.283 148.429C424.574 146.104 427.131 144.356 429.954 143.184C433.346 141.712 437.058 140.976 441.09 140.976C447.298 140.976 452.098 142.576 455.49 145.776C458.882 148.976 460.578 153.52 460.578 159.408V187.072C460.578 188.177 459.683 189.072 458.578 189.072H454.973ZM437.442 189.84C433.858 189.84 430.722 189.232 428.034 188.016C425.41 186.736 423.362 184.976 421.89 182.736C420.482 180.496 419.778 177.904 419.778 174.96C419.778 172.336 420.29 170.128 421.314 168.336C422.402 166.48 423.778 165.04 425.442 164.016C427.106 162.928 428.994 162.192 431.106 161.808C433.282 161.36 435.554 161.136 437.922 161.136H453.282V167.28H439.074C437.666 167.28 436.194 167.408 434.658 167.664C433.122 167.92 431.778 168.464 430.626 169.296C429.794 169.936 429.122 170.736 428.61 171.696C428.162 172.656 427.938 173.776 427.938 175.056C427.938 177.552 428.866 179.536 430.722 181.008C432.578 182.48 435.074 183.216 438.21 183.216C440.834 183.216 443.202 182.608 445.314 181.392C447.49 180.176 449.218 178.512 450.498 176.4C451.842 174.224 452.514 171.792 452.514 169.104L455.874 172.56C455.49 175.952 454.466 178.96 452.802 181.584C451.138 184.208 448.994 186.256 446.37 187.728C443.81 189.136 440.834 189.84 437.442 189.84Z" fill="black"/>
<path d="M483.334 189.84C480.454 189.84 478.118 188.944 476.326 187.152C474.534 185.36 473.638 182.512 473.638 178.608V124.16C473.638 123.056 474.533 122.16 475.638 122.16H479.702C480.806 122.16 481.702 123.056 481.702 124.16V177.072C481.702 178.928 482.086 180.272 482.854 181.104C483.622 181.936 484.646 182.352 485.926 182.352C486.502 182.352 487.142 182.288 487.846 182.16C488.951 181.959 490.054 182.744 490.054 183.868V187.157C490.054 187.967 489.568 188.71 488.794 188.949C488.087 189.168 487.355 189.337 486.598 189.456C485.382 189.712 484.294 189.84 483.334 189.84Z" fill="black"/>
<path d="M503.844 189.072C501.193 189.072 499.044 186.923 499.044 184.272V182.736C499.044 180.085 501.193 177.936 503.844 177.936C506.495 177.936 508.644 180.085 508.644 182.736V184.272C508.644 186.923 506.495 189.072 503.844 189.072Z" fill="black"/>
<path d="M555.285 189.072C554.227 189.072 553.353 188.249 553.289 187.193L552.827 179.568V159.408C552.827 155.76 551.803 152.944 549.755 150.96C547.771 148.976 544.795 147.984 540.827 147.984C538.267 147.984 535.867 148.528 533.627 149.616C531.861 150.423 530.134 151.688 528.448 153.41C527.673 154.202 526.414 154.312 525.571 153.594L522.766 151.203C521.925 150.486 521.819 149.216 522.595 148.429C524.886 146.104 527.443 144.356 530.267 143.184C533.659 141.712 537.371 140.976 541.403 140.976C547.611 140.976 552.411 142.576 555.803 145.776C559.195 148.976 560.891 153.52 560.891 159.408V187.072C560.891 188.177 559.995 189.072 558.891 189.072H555.285ZM537.755 189.84C534.171 189.84 531.035 189.232 528.347 188.016C525.723 186.736 523.675 184.976 522.203 182.736C520.795 180.496 520.091 177.904 520.091 174.96C520.091 172.336 520.603 170.128 521.627 168.336C522.715 166.48 524.091 165.04 525.755 164.016C527.419 162.928 529.307 162.192 531.419 161.808C533.595 161.36 535.867 161.136 538.235 161.136H553.595V167.28H539.387C537.979 167.28 536.507 167.408 534.971 167.664C533.435 167.92 532.091 168.464 530.939 169.296C530.107 169.936 529.435 170.736 528.923 171.696C528.475 172.656 528.251 173.776 528.251 175.056C528.251 177.552 529.179 179.536 531.035 181.008C532.891 182.48 535.387 183.216 538.523 183.216C541.147 183.216 543.515 182.608 545.627 181.392C547.803 180.176 549.531 178.512 550.811 176.4C552.155 174.224 552.827 171.792 552.827 169.104L556.187 172.56C555.803 175.952 554.779 178.96 553.115 181.584C551.451 184.208 549.307 186.256 546.683 187.728C544.123 189.136 541.147 189.84 537.755 189.84Z" fill="black"/>
<path d="M576.046 189.072C574.942 189.072 574.046 188.177 574.046 187.072V143.744C574.046 142.64 574.942 141.744 576.046 141.744H580.11C581.215 141.744 582.11 142.64 582.11 143.744V187.072C582.11 188.177 581.215 189.072 580.11 189.072H576.046ZM578.078 133.2C575.427 133.2 573.278 131.051 573.278 128.4V126.96C573.278 124.309 575.427 122.16 578.078 122.16C580.729 122.16 582.878 124.309 582.878 126.96V128.4C582.878 131.051 580.729 133.2 578.078 133.2Z" fill="black"/>
<defs>
<linearGradient id="paint0_linear_350_264" x1="99.9995" y1="102.428" x2="199.032" y2="159.604" gradientUnits="userSpaceOnUse">
<stop stop-color="#AB6FFF"/>
<stop offset="1" stop-color="#4C54E3"/>
</linearGradient>
<linearGradient id="paint1_linear_350_264" x1="99.9995" y1="102.428" x2="199.032" y2="159.604" gradientUnits="userSpaceOnUse">
<stop stop-color="#AB6FFF"/>
<stop offset="1" stop-color="#4C54E3"/>
</linearGradient>
</defs>
</svg>
