<svg width="463" height="133" viewBox="0 0 463 133" fill="none" xmlns="http://www.w3.org/2000/svg">
<path d="M57.6699 62.6073L48.3723 58.5663C41.5715 55.593 41.5715 46.1804 48.3723 43.2235L57.6699 39.1825C74.1211 32.0849 87.3146 19.0789 94.6471 2.73105C95.2182 1.44683 94.2782 0 92.8727 0L17.3847 0C7.44054 0 2.46843 0 0.612305 3.22783C-1.24383 6.45567 1.25715 10.753 6.25909 19.3476L64.9864 120.256C69.9301 128.751 72.4019 132.998 76.1005 133C79.799 133.002 82.276 128.758 87.2299 120.269L94.1224 108.459C95.0963 106.79 95.5833 105.956 95.8058 105.063C96.0038 104.269 96.0485 103.444 95.9374 102.633C95.8126 101.722 95.4186 100.839 94.6306 99.0752C87.3055 82.7241 74.1179 69.7123 57.6699 62.6073Z" fill="url(#paint0_linear_298_3115)"/>
<path d="M137.823 0L122.584 0C121.533 0 120.831 1.08169 121.259 2.04109C123.962 8.04778 127.453 13.601 131.604 18.5751C134.361 21.879 135.739 23.5309 137.971 23.9735C139.049 24.1873 140.506 24.0624 141.531 23.6683C143.655 22.8523 144.882 20.7316 147.335 16.4901C150.804 10.4932 152.538 7.49474 152.001 5.05329C151.716 3.75806 151.037 2.58248 150.059 1.68732C148.214 0 144.751 0 137.823 0Z" fill="url(#paint1_linear_298_3115)"/>
<path d="M84.5542 54.1881L88.2402 55.7901C94.7608 58.6068 99.9888 63.7652 102.893 70.2474L105.1 75.1902C105.376 75.7898 105.818 76.2978 106.374 76.6539C106.93 77.01 107.576 77.1993 108.236 77.1993C108.896 77.1993 109.542 77.01 110.098 76.6539C110.654 76.2978 111.096 75.7898 111.372 75.1902L113.449 70.5209C116.436 63.8757 121.857 58.6291 128.597 55.8618L132.576 54.2142C133.192 53.9722 133.721 53.5501 134.094 53.003C134.467 52.4559 134.667 51.809 134.667 51.1469C134.667 50.4847 134.467 49.8379 134.094 49.2908C133.721 48.7437 133.192 48.3216 132.576 48.0796L128.603 46.432C121.863 43.6676 116.439 38.4233 113.449 31.7794L111.365 27.1036C111.089 26.5058 110.647 25.9996 110.092 25.6448C109.537 25.2901 108.892 25.1016 108.233 25.1016C107.574 25.1016 106.929 25.2901 106.374 25.6448C105.819 25.9996 105.377 26.5058 105.1 27.1036L102.899 32.0529C99.9924 38.5338 94.7621 43.6899 88.2402 46.5036L84.5542 48.1057C81.8582 49.2779 81.8582 53.0094 84.5542 54.1881Z" fill="#FB4B43"/>
<path d="M447.133 112.842V22.9907H462.837V112.842H447.133Z" fill="white"/>
<path d="M384.318 59.6775C385.176 58.3044 386.291 56.8884 387.665 55.4295C389.123 53.8848 390.883 52.5117 392.942 51.3103C395.002 50.023 397.319 48.9932 399.894 48.2209C402.554 47.3627 405.515 46.9336 408.776 46.9336C412.552 46.9336 416.07 47.5343 419.331 48.7358C422.678 49.9372 425.553 51.7823 427.956 54.271C430.445 56.6739 432.376 59.7204 433.749 63.4106C435.208 67.0149 435.937 71.2629 435.937 76.1545V112.841H420.619V94.5623C419.417 100.999 417.014 106.019 413.41 109.623C409.891 113.142 405.3 114.901 399.636 114.901C396.547 114.901 393.758 114.386 391.269 113.356C388.78 112.327 386.635 110.911 384.833 109.108C383.116 107.306 381.786 105.161 380.842 102.672C379.898 100.183 379.426 97.4801 379.426 94.5623C379.426 91.4729 379.984 88.6838 381.1 86.1951C382.301 83.6206 383.932 81.4323 385.991 79.6301C388.137 77.8279 390.711 76.4548 393.715 75.5108C396.804 74.481 400.237 73.9661 404.013 73.9661H420.49C420.147 69.2462 418.816 65.7705 416.499 63.5393C414.268 61.2222 411.479 60.0637 408.132 60.0637C405.128 60.0637 402.597 60.7931 400.537 62.252C398.563 63.7109 396.933 65.3415 395.646 67.1436L384.318 59.6775ZM406.072 99.9689C408.132 99.9689 410.02 99.5827 411.736 98.8103C413.539 97.9521 415.083 96.8365 416.371 95.4634C417.658 94.0045 418.688 92.2453 419.46 90.1857C420.232 88.126 420.619 85.8948 420.619 83.4919V80.2737H410.835C405.429 80.2737 401.438 81.2606 398.864 83.2344C396.375 85.2082 395.131 87.6969 395.131 90.7006C395.131 93.7042 396.246 96.0212 398.478 97.6518C400.709 99.1965 403.24 99.9689 406.072 99.9689Z" fill="white"/>
<path d="M370.56 22.9907V112.842H354.855V93.919C353.482 100.441 350.95 105.59 347.26 109.366C343.57 113.056 338.979 114.901 333.486 114.901C329.968 114.901 326.75 114.129 323.832 112.584C321 110.954 318.554 108.68 316.494 105.762C314.435 102.758 312.847 99.1538 311.732 94.9488C310.616 90.6579 310.058 85.895 310.058 80.6601C310.058 70.1904 312.161 61.9519 316.366 55.9447C320.657 49.9374 326.535 46.9338 334.001 46.9338C339.236 46.9338 343.656 48.6073 347.26 51.9541C350.95 55.2152 353.482 60.4072 354.855 67.53V22.9907H370.56ZM340.309 99.9691C344.514 99.9691 347.947 98.5102 350.607 95.5924C353.353 92.5888 354.769 88.6412 354.855 83.7496V78.858C354.769 73.8805 353.396 69.8042 350.736 66.629C348.075 63.4537 344.514 61.8661 340.051 61.8661C335.675 61.8661 332.199 63.5395 329.625 66.8864C327.05 70.1475 325.763 74.8245 325.763 80.9176C325.763 87.0964 327.093 91.8164 329.753 95.0775C332.414 98.3385 335.932 99.9691 340.309 99.9691Z" fill="white"/>
<path d="M249.432 59.6775C250.29 58.3044 251.405 56.8884 252.778 55.4295C254.237 53.8848 255.997 52.5117 258.056 51.3103C260.116 50.023 262.433 48.9932 265.007 48.2209C267.668 47.3627 270.629 46.9336 273.89 46.9336C277.666 46.9336 281.184 47.5343 284.445 48.7358C287.792 49.9372 290.667 51.7823 293.07 54.271C295.559 56.6739 297.489 59.7204 298.863 63.4106C300.321 67.0149 301.051 71.2629 301.051 76.1545V112.841H285.732V94.5623C284.531 100.999 282.128 106.019 278.524 109.623C275.005 113.142 270.414 114.901 264.75 114.901C261.661 114.901 258.872 114.386 256.383 113.356C253.894 112.327 251.749 110.911 249.946 109.108C248.23 107.306 246.9 105.161 245.956 102.672C245.012 100.183 244.54 97.4801 244.54 94.5623C244.54 91.4729 245.098 88.6838 246.213 86.1951C247.415 83.6206 249.045 81.4323 251.105 79.6301C253.25 77.8279 255.825 76.4548 258.829 75.5108C261.918 74.481 265.351 73.9661 269.127 73.9661H285.604C285.26 69.2462 283.93 65.7705 281.613 63.5393C279.382 61.2222 276.593 60.0637 273.246 60.0637C270.242 60.0637 267.711 60.7931 265.651 62.252C263.677 63.7109 262.047 65.3415 260.76 67.1436L249.432 59.6775ZM271.186 99.9689C273.246 99.9689 275.134 99.5827 276.85 98.8103C278.652 97.9521 280.197 96.8365 281.484 95.4634C282.772 94.0045 283.802 92.2453 284.574 90.1857C285.346 88.126 285.732 85.8948 285.732 83.4919V80.2737H275.949C270.543 80.2737 266.552 81.2606 263.978 83.2344C261.489 85.2082 260.245 87.6969 260.245 90.7006C260.245 93.7042 261.36 96.0212 263.591 97.6518C265.823 99.1965 268.354 99.9689 271.186 99.9689Z" fill="white"/>
<path d="M218.705 112.841H201.456L176.097 48.9932H192.831L210.08 93.9187L227.33 48.9932H244.064L218.705 112.841Z" fill="white"/>
<defs>
<linearGradient id="paint0_linear_298_3115" x1="0.000428933" y1="5.14905" x2="75.949" y2="130.979" gradientUnits="userSpaceOnUse">
<stop stop-color="#8DA2FF"/>
<stop offset="0.559902" stop-color="#5D63E1"/>
<stop offset="0.830261" stop-color="#5D63E1"/>
</linearGradient>
<linearGradient id="paint1_linear_298_3115" x1="0.000428933" y1="5.14905" x2="75.949" y2="130.979" gradientUnits="userSpaceOnUse">
<stop stop-color="#8DA2FF"/>
<stop offset="0.559902" stop-color="#5D63E1"/>
<stop offset="0.830261" stop-color="#5D63E1"/>
</linearGradient>
</defs>
</svg>
