<svg width="683" height="312" viewBox="0 0 683 312" fill="none" xmlns="http://www.w3.org/2000/svg">
<rect width="682.879" height="312" fill="#0D0B16"/>
<path d="M148.564 152.722L140.734 149.319C135.007 146.815 135.007 138.889 140.734 136.399L148.564 132.996C162.417 127.019 173.528 116.066 179.702 102.3C180.183 101.218 179.392 100 178.208 100H114.639C106.265 100 102.078 100 100.515 102.718C98.9521 105.436 101.058 109.055 105.27 116.293L154.725 201.268C158.888 208.422 160.97 211.998 164.084 212C167.199 212.002 169.285 208.428 173.456 201.28L179.261 191.334C180.081 189.929 180.491 189.226 180.678 188.474C180.845 187.805 180.882 187.111 180.789 186.428C180.684 185.66 180.352 184.917 179.689 183.432C173.52 169.662 162.415 158.705 148.564 152.722Z" fill="url(#paint0_linear_350_260)" fill-opacity="0.8"/>
<path d="M216.061 100H203.228C202.343 100 201.752 100.911 202.112 101.719C204.388 106.777 207.329 111.453 210.824 115.642C213.145 118.424 214.306 119.815 216.186 120.188C217.094 120.368 218.32 120.263 219.184 119.931C220.973 119.244 222.005 117.458 224.071 113.886C226.992 108.836 228.452 106.311 228 104.255C227.76 103.165 227.189 102.175 226.365 101.421C224.812 100 221.895 100 216.061 100Z" fill="url(#paint1_linear_350_260)" fill-opacity="0.8"/>
<path d="M171.203 145.633L174.307 146.982C179.798 149.354 184.201 153.698 186.646 159.156L188.505 163.319C188.738 163.824 189.11 164.251 189.578 164.551C190.046 164.851 190.59 165.01 191.146 165.01C191.702 165.01 192.246 164.851 192.714 164.551C193.182 164.251 193.554 163.824 193.787 163.319L195.536 159.387C198.051 153.791 202.616 149.372 208.292 147.042L211.643 145.655C212.162 145.451 212.607 145.095 212.921 144.635C213.235 144.174 213.403 143.629 213.403 143.072C213.403 142.514 213.235 141.969 212.921 141.509C212.607 141.048 212.162 140.692 211.643 140.489L208.297 139.101C202.621 136.773 198.053 132.357 195.536 126.762L193.781 122.825C193.548 122.321 193.176 121.895 192.709 121.596C192.241 121.297 191.698 121.139 191.143 121.139C190.589 121.139 190.045 121.297 189.578 121.596C189.111 121.895 188.738 122.321 188.505 122.825L186.652 126.992C184.204 132.45 179.799 136.792 174.307 139.161L171.203 140.511C168.933 141.498 168.933 144.64 171.203 145.633Z" fill="#FFB14E"/>
<path d="M280.126 189.072C279.307 189.072 278.571 188.573 278.268 187.813L253.175 124.901C252.651 123.588 253.619 122.16 255.033 122.16H260.023C260.849 122.16 261.59 122.668 261.888 123.439L283.282 178.8H280.882L301.991 123.448C302.287 122.672 303.03 122.16 303.86 122.16H308.851C310.263 122.16 311.23 123.584 310.71 124.896L285.798 187.808C285.496 188.571 284.759 189.072 283.939 189.072H280.126Z" fill="white"/>
<path d="M346.786 189.072C345.728 189.072 344.854 188.249 344.79 187.193L344.328 179.568V159.408C344.328 155.76 343.304 152.944 341.256 150.96C339.272 148.976 336.296 147.984 332.328 147.984C329.768 147.984 327.368 148.528 325.128 149.616C323.362 150.423 321.635 151.688 319.949 153.41C319.174 154.202 317.915 154.312 317.072 153.594L314.267 151.203C313.426 150.486 313.32 149.216 314.096 148.429C316.387 146.104 318.944 144.356 321.768 143.184C325.16 141.712 328.872 140.976 332.904 140.976C339.112 140.976 343.912 142.576 347.304 145.776C350.696 148.976 352.392 153.52 352.392 159.408V187.072C352.392 188.177 351.496 189.072 350.392 189.072H346.786ZM329.256 189.84C325.672 189.84 322.536 189.232 319.848 188.016C317.224 186.736 315.176 184.976 313.704 182.736C312.296 180.496 311.592 177.904 311.592 174.96C311.592 172.336 312.104 170.128 313.128 168.336C314.216 166.48 315.592 165.04 317.256 164.016C318.92 162.928 320.808 162.192 322.92 161.808C325.096 161.36 327.368 161.136 329.736 161.136H345.096V167.28H330.888C329.48 167.28 328.008 167.408 326.472 167.664C324.936 167.92 323.592 168.464 322.44 169.296C321.608 169.936 320.936 170.736 320.424 171.696C319.976 172.656 319.752 173.776 319.752 175.056C319.752 177.552 320.68 179.536 322.536 181.008C324.392 182.48 326.888 183.216 330.024 183.216C332.648 183.216 335.016 182.608 337.128 181.392C339.304 180.176 341.032 178.512 342.312 176.4C343.656 174.224 344.328 171.792 344.328 169.104L347.688 172.56C347.304 175.952 346.28 178.96 344.616 181.584C342.952 184.208 340.808 186.256 338.184 187.728C335.624 189.136 332.648 189.84 329.256 189.84Z" fill="white"/>
<path d="M384.939 189.84C380.651 189.84 376.875 188.784 373.611 186.672C370.411 184.496 367.915 181.552 366.123 177.84C364.331 174.128 363.435 169.968 363.435 165.36C363.435 160.368 364.395 156.048 366.315 152.4C368.235 148.752 370.827 145.936 374.091 143.952C377.355 141.968 380.971 140.976 384.939 140.976C387.947 140.976 390.635 141.584 393.003 142.8C395.371 143.952 397.355 145.552 398.955 147.6C400.619 149.584 401.771 151.824 402.411 154.32L400.107 155.856V124.16C400.107 123.056 401.003 122.16 402.107 122.16H406.171C407.276 122.16 408.171 123.056 408.171 124.16V187.072C408.171 188.177 407.276 189.072 406.171 189.072H402.107C401.003 189.072 400.107 188.177 400.107 187.072V174.96L402.795 175.824C401.963 178.576 400.715 181.008 399.051 183.12C397.387 185.232 395.371 186.896 393.003 188.112C390.635 189.264 387.947 189.84 384.939 189.84ZM386.283 182.352C389.163 182.352 391.691 181.648 393.867 180.24C396.043 178.768 397.739 176.752 398.955 174.192C400.171 171.632 400.779 168.688 400.779 165.36C400.779 162.032 400.171 159.088 398.955 156.528C397.739 153.968 396.043 151.984 393.867 150.576C391.691 149.104 389.163 148.368 386.283 148.368C383.403 148.368 380.843 149.104 378.603 150.576C376.427 151.984 374.699 153.968 373.419 156.528C372.203 159.088 371.595 162.032 371.595 165.36C371.595 168.688 372.203 171.632 373.419 174.192C374.699 176.752 376.427 178.768 378.603 180.24C380.843 181.648 383.403 182.352 386.283 182.352Z" fill="white"/>
<path d="M454.973 189.072C453.916 189.072 453.041 188.249 452.977 187.193L452.515 179.568V159.408C452.515 155.76 451.491 152.944 449.443 150.96C447.459 148.976 444.483 147.984 440.515 147.984C437.955 147.984 435.555 148.528 433.315 149.616C431.549 150.423 429.823 151.688 428.137 153.41C427.362 154.202 426.102 154.312 425.259 153.594L422.455 151.203C421.613 150.486 421.508 149.216 422.284 148.429C424.575 146.104 427.132 144.356 429.955 143.184C433.347 141.712 437.059 140.976 441.091 140.976C447.299 140.976 452.099 142.576 455.491 145.776C458.883 148.976 460.579 153.52 460.579 159.408V187.072C460.579 188.177 459.684 189.072 458.579 189.072H454.973ZM437.443 189.84C433.859 189.84 430.723 189.232 428.035 188.016C425.411 186.736 423.363 184.976 421.891 182.736C420.483 180.496 419.779 177.904 419.779 174.96C419.779 172.336 420.291 170.128 421.315 168.336C422.403 166.48 423.779 165.04 425.443 164.016C427.107 162.928 428.995 162.192 431.107 161.808C433.283 161.36 435.555 161.136 437.923 161.136H453.283V167.28H439.075C437.667 167.28 436.195 167.408 434.659 167.664C433.123 167.92 431.779 168.464 430.627 169.296C429.795 169.936 429.123 170.736 428.611 171.696C428.163 172.656 427.939 173.776 427.939 175.056C427.939 177.552 428.867 179.536 430.723 181.008C432.579 182.48 435.075 183.216 438.211 183.216C440.835 183.216 443.203 182.608 445.315 181.392C447.491 180.176 449.219 178.512 450.499 176.4C451.843 174.224 452.515 171.792 452.515 169.104L455.875 172.56C455.491 175.952 454.467 178.96 452.803 181.584C451.139 184.208 448.995 186.256 446.371 187.728C443.811 189.136 440.835 189.84 437.443 189.84Z" fill="white"/>
<path d="M483.335 189.84C480.455 189.84 478.119 188.944 476.327 187.152C474.535 185.36 473.639 182.512 473.639 178.608V124.16C473.639 123.056 474.534 122.16 475.639 122.16H479.703C480.807 122.16 481.703 123.056 481.703 124.16V177.072C481.703 178.928 482.087 180.272 482.855 181.104C483.623 181.936 484.647 182.352 485.927 182.352C486.503 182.352 487.143 182.288 487.847 182.16C488.952 181.959 490.055 182.744 490.055 183.868V187.157C490.055 187.967 489.569 188.71 488.795 188.949C488.088 189.168 487.356 189.337 486.599 189.456C485.383 189.712 484.295 189.84 483.335 189.84Z" fill="white"/>
<path d="M503.845 189.072C501.194 189.072 499.045 186.923 499.045 184.272V182.736C499.045 180.085 501.194 177.936 503.845 177.936C506.496 177.936 508.645 180.085 508.645 182.736V184.272C508.645 186.923 506.496 189.072 503.845 189.072Z" fill="white"/>
<path d="M555.286 189.072C554.228 189.072 553.354 188.249 553.29 187.193L552.828 179.568V159.408C552.828 155.76 551.804 152.944 549.756 150.96C547.772 148.976 544.796 147.984 540.828 147.984C538.268 147.984 535.868 148.528 533.628 149.616C531.862 150.423 530.135 151.688 528.449 153.41C527.674 154.202 526.415 154.312 525.572 153.594L522.767 151.203C521.926 150.486 521.82 149.216 522.596 148.429C524.887 146.104 527.444 144.356 530.268 143.184C533.66 141.712 537.372 140.976 541.404 140.976C547.612 140.976 552.412 142.576 555.804 145.776C559.196 148.976 560.892 153.52 560.892 159.408V187.072C560.892 188.177 559.996 189.072 558.892 189.072H555.286ZM537.756 189.84C534.172 189.84 531.036 189.232 528.348 188.016C525.724 186.736 523.676 184.976 522.204 182.736C520.796 180.496 520.092 177.904 520.092 174.96C520.092 172.336 520.604 170.128 521.628 168.336C522.716 166.48 524.092 165.04 525.756 164.016C527.42 162.928 529.308 162.192 531.42 161.808C533.596 161.36 535.868 161.136 538.236 161.136H553.596V167.28H539.388C537.98 167.28 536.508 167.408 534.972 167.664C533.436 167.92 532.092 168.464 530.94 169.296C530.108 169.936 529.436 170.736 528.924 171.696C528.476 172.656 528.252 173.776 528.252 175.056C528.252 177.552 529.18 179.536 531.036 181.008C532.892 182.48 535.388 183.216 538.524 183.216C541.148 183.216 543.516 182.608 545.628 181.392C547.804 180.176 549.532 178.512 550.812 176.4C552.156 174.224 552.828 171.792 552.828 169.104L556.188 172.56C555.804 175.952 554.78 178.96 553.116 181.584C551.452 184.208 549.308 186.256 546.684 187.728C544.124 189.136 541.148 189.84 537.756 189.84Z" fill="white"/>
<path d="M576.047 189.072C574.943 189.072 574.047 188.177 574.047 187.072V143.744C574.047 142.64 574.943 141.744 576.047 141.744H580.111C581.216 141.744 582.111 142.64 582.111 143.744V187.072C582.111 188.177 581.216 189.072 580.111 189.072H576.047ZM578.079 133.2C575.428 133.2 573.279 131.051 573.279 128.4V126.96C573.279 124.309 575.428 122.16 578.079 122.16C580.73 122.16 582.879 124.309 582.879 126.96V128.4C582.879 131.051 580.73 133.2 578.079 133.2Z" fill="white"/>
<defs>
<linearGradient id="paint0_linear_350_260" x1="99.9995" y1="102.428" x2="199.032" y2="159.604" gradientUnits="userSpaceOnUse">
<stop stop-color="#AB6FFF"/>
<stop offset="1" stop-color="#4C54E3"/>
</linearGradient>
<linearGradient id="paint1_linear_350_260" x1="99.9995" y1="102.428" x2="199.032" y2="159.604" gradientUnits="userSpaceOnUse">
<stop stop-color="#AB6FFF"/>
<stop offset="1" stop-color="#4C54E3"/>
</linearGradient>
</defs>
</svg>
