<svg width="498" height="96" viewBox="0 0 498 96" fill="none" xmlns="http://www.w3.org/2000/svg">
<path d="M41.6265 45.1902L34.9154 42.2734C30.0066 40.1273 30.0066 33.3332 34.9154 31.1989L41.6265 28.2821C53.501 23.159 63.0241 13.7713 68.3167 1.97128C68.729 1.04433 68.0505 0 67.036 0L12.5484 0C5.37066 0 1.78177 0 0.44201 2.32987C-0.897758 4.65973 0.907462 7.76155 4.51789 13.9652L46.9075 86.8014C50.4759 92.9327 52.2601 95.9984 54.9297 96C57.5993 96.0016 59.3872 92.9381 62.963 86.811L67.938 78.2862C68.641 77.0817 68.9925 76.4794 69.1531 75.835C69.296 75.2617 69.3283 74.6664 69.2481 74.081C69.158 73.4231 68.8736 72.7863 68.3049 71.5129C63.0176 59.7106 53.4987 50.3187 41.6265 45.1902Z" fill="url(#paint0_linear_583_4312)"/>
<path d="M99.4813 0L88.4815 0C87.7233 0 87.2165 0.780767 87.5251 1.47327C89.4761 5.80892 91.9963 9.81723 94.9923 13.4076C96.9822 15.7923 97.9772 16.9847 99.5882 17.3042C100.366 17.4585 101.418 17.3684 102.158 17.0839C103.691 16.4949 104.577 14.9641 106.347 11.9026C108.851 7.57403 110.102 5.40974 109.715 3.64749C109.509 2.71258 109.02 1.86405 108.313 1.21792C106.982 0 104.482 0 99.4813 0Z" fill="url(#paint1_linear_583_4312)"/>
<path d="M61.0323 39.1136L63.6928 40.2699C68.3994 42.303 72.173 46.0264 74.2691 50.7052L75.8626 54.273C76.0617 54.7058 76.3807 55.0725 76.7819 55.3295C77.183 55.5866 77.6495 55.7232 78.1259 55.7232C78.6024 55.7232 79.0688 55.5866 79.47 55.3295C79.8711 55.0725 80.1901 54.7058 80.3893 54.273L81.8887 50.9027C84.0445 46.1062 87.9577 42.3191 92.8223 40.3217L95.6943 39.1324C96.1392 38.9577 96.5212 38.6531 96.7904 38.2582C97.0596 37.8633 97.2036 37.3964 97.2036 36.9184C97.2036 36.4405 97.0596 35.9736 96.7904 35.5787C96.5212 35.1838 96.1392 34.8791 95.6943 34.7045L92.827 33.5152C87.9615 31.5199 84.0466 27.7345 81.8887 22.9389L80.3846 19.5639C80.1849 19.1324 79.8659 18.767 79.4652 18.5109C79.0646 18.2549 78.599 18.1188 78.1236 18.1188C77.6481 18.1188 77.1825 18.2549 76.7819 18.5109C76.3813 18.767 76.0623 19.1324 75.8626 19.5639L74.2738 23.1363C72.1756 27.8143 68.4003 31.5359 63.6928 33.5669L61.0323 34.7233C59.0862 35.5694 59.0862 38.2628 61.0323 39.1136Z" fill="#FF8A5B"/>
<path d="M327.628 24.8393C333.872 24.8394 339.593 27.2016 344.024 31.1225V25.9467H357.318V77.3178H344.024V72.142C339.593 76.0628 333.872 78.4251 327.628 78.4252C313.555 78.4252 302.146 66.4294 302.146 51.6322C302.146 36.835 313.555 24.8393 327.628 24.8393ZM330.064 37.682C322.477 37.6822 316.327 43.928 316.327 51.6322C316.327 59.3365 322.477 65.5823 330.064 65.5824C337.651 65.5824 343.802 59.3366 343.802 51.6322C343.802 43.9279 337.651 37.682 330.064 37.682Z" fill="#141414"/>
<path d="M121.785 25.9464L144.829 77.3177H157.902L180.724 25.9464H165.435L151.254 60.2678L137.074 25.9464H121.785Z" fill="#141414"/>
<path d="M364.852 9.33929V25.9464V77.3177H378.59V2.69644L364.852 9.33929Z" fill="#141414"/>
<path d="M204.875 24.8393C211.12 24.8394 216.841 27.2016 221.272 31.1225V25.9467H234.566V77.3178H221.272V72.142C216.841 76.0628 211.12 78.4251 204.875 78.4252C190.803 78.4252 179.394 66.4294 179.394 51.6322C179.394 36.835 190.803 24.8393 204.875 24.8393ZM207.313 37.682C199.726 37.682 193.575 43.9279 193.575 51.6322C193.575 59.3366 199.726 65.5824 207.313 65.5824C214.9 65.5822 221.05 59.3364 221.05 51.6322C221.05 43.928 214.9 37.6823 207.313 37.682Z" fill="#141414"/>
<path d="M296.164 52.7394C296.164 68.0177 282.071 79.3244 266.473 78.425C252.401 78.425 240.992 66.4292 240.992 51.632C240.992 36.8348 252.401 24.839 266.473 24.839C272.512 24.8391 278.06 27.0484 282.427 30.7394V9.33902L296.164 2.69644V52.7394ZM268.91 37.6828C261.323 37.6829 255.173 43.9279 255.173 51.632C255.173 59.3362 261.323 65.582 268.91 65.5822C276.497 65.5822 282.648 59.3363 282.648 51.632C282.648 43.9278 276.497 37.6828 268.91 37.6828Z" fill="#141414"/>
<path d="M391.365 62.6413L392.779 63.2563C395.281 64.3376 397.286 66.3178 398.4 68.8063L399.247 70.7038C399.353 70.934 399.523 71.129 399.736 71.2657C399.949 71.4024 400.197 71.4751 400.45 71.4751C400.703 71.4751 400.951 71.4024 401.165 71.2657C401.378 71.129 401.547 70.934 401.653 70.7038L402.45 68.9113C403.596 66.3603 405.676 64.3461 408.261 63.2838L409.787 62.6513C410.024 62.5584 410.227 62.3963 410.37 62.1863C410.513 61.9762 410.59 61.7279 410.59 61.4737C410.59 61.2195 410.513 60.9712 410.37 60.7612C410.227 60.5512 410.024 60.3891 409.787 60.2962L408.264 59.6637C405.678 58.6025 403.597 56.5892 402.45 54.0387L401.651 52.2437C401.545 52.0142 401.375 51.8198 401.162 51.6837C400.949 51.5475 400.702 51.4751 400.449 51.4751C400.196 51.4751 399.949 51.5475 399.736 51.6837C399.523 51.8198 399.353 52.0142 399.247 52.2437L398.403 54.1437C397.288 56.6317 395.281 58.611 392.779 59.6912L391.365 60.3062C390.331 60.7562 390.331 62.1887 391.365 62.6413Z" fill="#FF8A5B"/>
<path d="M446.071 24.8892C452.316 24.8893 458.036 27.2515 462.468 31.1724V25.9966H475.761V77.3677H462.468V72.1919C458.036 76.1127 452.316 78.475 446.071 78.4751C431.998 78.4751 420.59 66.4793 420.59 51.6821C420.59 36.8849 431.998 24.8892 446.071 24.8892ZM448.509 37.7319C440.921 37.7319 434.77 43.9778 434.77 51.6821C434.77 59.3865 440.921 65.6323 448.509 65.6323C456.095 65.6321 462.246 59.3863 462.246 51.6821C462.246 43.9779 456.095 37.7322 448.509 37.7319Z" fill="#141414"/>
<path d="M497.033 77.3676V25.9963H483.295V77.3676H497.033Z" fill="#141414"/>
<path d="M483.295 21.3463V9.16775L497.033 2.5249V14.482L483.295 21.3463Z" fill="#141414"/>
<defs>
<linearGradient id="paint0_linear_583_4312" x1="3.6332e-05" y1="2.08113" x2="84.885" y2="51.0895" gradientUnits="userSpaceOnUse">
<stop stop-color="#23D7BE"/>
<stop offset="0.5" stop-color="#3B9EFF"/>
<stop offset="1" stop-color="#7C5CF8"/>
</linearGradient>
<linearGradient id="paint1_linear_583_4312" x1="3.6332e-05" y1="2.08113" x2="84.885" y2="51.0895" gradientUnits="userSpaceOnUse">
<stop stop-color="#23D7BE"/>
<stop offset="0.5" stop-color="#3B9EFF"/>
<stop offset="1" stop-color="#7C5CF8"/>
</linearGradient>
</defs>
</svg>
