<svg width="110" height="96" viewBox="0 0 110 96" fill="none" xmlns="http://www.w3.org/2000/svg">
<path d="M41.6265 45.1902L34.9154 42.2734C30.0066 40.1273 30.0066 33.3332 34.9154 31.1989L41.6265 28.2821C53.501 23.159 63.0241 13.7713 68.3167 1.97128C68.729 1.04433 68.0505 0 67.036 0L12.5484 0C5.37066 0 1.78177 0 0.44201 2.32987C-0.897758 4.65973 0.907462 7.76155 4.51789 13.9652L46.9075 86.8014C50.4759 92.9327 52.2601 95.9984 54.9297 96C57.5993 96.0016 59.3872 92.9381 62.963 86.811L67.938 78.2862C68.641 77.0817 68.9925 76.4794 69.1531 75.835C69.296 75.2617 69.3283 74.6664 69.2481 74.081C69.158 73.4231 68.8736 72.7863 68.3049 71.5129C63.0176 59.7106 53.4987 50.3187 41.6265 45.1902Z" fill="url(#paint0_linear_583_4338)"/>
<path d="M99.4813 0L88.4815 0C87.7233 0 87.2165 0.780767 87.5251 1.47327C89.4761 5.80892 91.9963 9.81723 94.9923 13.4076C96.9822 15.7923 97.9772 16.9847 99.5882 17.3042C100.366 17.4585 101.418 17.3684 102.158 17.0839C103.691 16.4949 104.577 14.9641 106.347 11.9026C108.851 7.57403 110.102 5.40974 109.715 3.64749C109.509 2.71258 109.02 1.86405 108.313 1.21792C106.982 0 104.482 0 99.4813 0Z" fill="url(#paint1_linear_583_4338)"/>
<path d="M61.0323 39.1136L63.6928 40.2699C68.3994 42.303 72.173 46.0264 74.2691 50.7052L75.8626 54.273C76.0617 54.7058 76.3807 55.0725 76.7819 55.3295C77.183 55.5865 77.6495 55.7232 78.1259 55.7232C78.6024 55.7232 79.0688 55.5865 79.47 55.3295C79.8711 55.0725 80.1901 54.7058 80.3893 54.273L81.8887 50.9027C84.0445 46.1062 87.9577 42.3191 92.8223 40.3217L95.6943 39.1324C96.1392 38.9577 96.5212 38.6531 96.7904 38.2582C97.0596 37.8632 97.2036 37.3964 97.2036 36.9184C97.2036 36.4405 97.0596 35.9736 96.7904 35.5787C96.5212 35.1838 96.1392 34.8791 95.6943 34.7045L92.827 33.5152C87.9615 31.5199 84.0466 27.7345 81.8887 22.9389L80.3846 19.5639C80.1849 19.1324 79.8659 18.767 79.4652 18.5109C79.0646 18.2549 78.599 18.1188 78.1236 18.1188C77.6481 18.1188 77.1825 18.2549 76.7819 18.5109C76.3813 18.767 76.0623 19.1324 75.8626 19.5639L74.2738 23.1363C72.1756 27.8143 68.4003 31.5359 63.6928 33.5669L61.0323 34.7233C59.0862 35.5694 59.0862 38.2628 61.0323 39.1136Z" fill="#FF8A5B"/>
<defs>
<linearGradient id="paint0_linear_583_4338" x1="3.6332e-05" y1="2.08113" x2="84.885" y2="51.0895" gradientUnits="userSpaceOnUse">
<stop stop-color="#23D7BE"/>
<stop offset="0.5" stop-color="#3B9EFF"/>
<stop offset="1" stop-color="#7C5CF8"/>
</linearGradient>
<linearGradient id="paint1_linear_583_4338" x1="3.6332e-05" y1="2.08113" x2="84.885" y2="51.0895" gradientUnits="userSpaceOnUse">
<stop stop-color="#23D7BE"/>
<stop offset="0.5" stop-color="#3B9EFF"/>
<stop offset="1" stop-color="#7C5CF8"/>
</linearGradient>
</defs>
</svg>
