<svg width="153" height="133" viewBox="0 0 153 133" fill="none" xmlns="http://www.w3.org/2000/svg">
<path d="M57.6699 62.6073L48.3723 58.5663C41.5715 55.593 41.5715 46.1804 48.3723 43.2235L57.6699 39.1825C74.1211 32.0849 87.3146 19.0789 94.6471 2.73105C95.2182 1.44683 94.2782 0 92.8727 0L17.3847 0C7.44054 0 2.46843 0 0.612305 3.22783C-1.24383 6.45567 1.25715 10.753 6.25909 19.3476L64.9864 120.256C69.9301 128.751 72.4019 132.998 76.1005 133C79.799 133.002 82.276 128.758 87.2299 120.269L94.1224 108.459C95.0963 106.79 95.5833 105.956 95.8058 105.063C96.0038 104.269 96.0485 103.444 95.9374 102.633C95.8126 101.722 95.4186 100.839 94.6306 99.0752C87.3055 82.7241 74.1179 69.7123 57.6699 62.6073Z" fill="url(#paint0_linear_298_3116)"/>
<path d="M137.823 0L122.584 0C121.533 0 120.831 1.08169 121.259 2.04109C123.962 8.04778 127.453 13.601 131.604 18.5751C134.361 21.879 135.739 23.5309 137.971 23.9735C139.049 24.1873 140.506 24.0624 141.531 23.6683C143.655 22.8523 144.882 20.7316 147.335 16.4901C150.804 10.4932 152.538 7.49474 152.001 5.05329C151.716 3.75806 151.037 2.58248 150.059 1.68732C148.214 0 144.751 0 137.823 0Z" fill="url(#paint1_linear_298_3116)"/>
<path d="M84.5542 54.1881L88.2402 55.7901C94.7608 58.6068 99.9888 63.7652 102.893 70.2474L105.1 75.1902C105.376 75.7898 105.818 76.2978 106.374 76.6539C106.93 77.01 107.576 77.1993 108.236 77.1993C108.896 77.1993 109.542 77.01 110.098 76.6539C110.654 76.2978 111.096 75.7898 111.372 75.1902L113.449 70.5209C116.436 63.8757 121.857 58.6291 128.597 55.8618L132.576 54.2142C133.192 53.9722 133.721 53.5501 134.094 53.003C134.467 52.4559 134.667 51.809 134.667 51.1469C134.667 50.4847 134.467 49.8379 134.094 49.2908C133.721 48.7437 133.192 48.3216 132.576 48.0796L128.603 46.432C121.863 43.6676 116.439 38.4233 113.449 31.7794L111.365 27.1036C111.089 26.5058 110.647 25.9996 110.092 25.6448C109.537 25.2901 108.892 25.1016 108.233 25.1016C107.574 25.1016 106.929 25.2901 106.374 25.6448C105.819 25.9996 105.377 26.5058 105.1 27.1036L102.899 32.0529C99.9924 38.5338 94.7621 43.6899 88.2402 46.5036L84.5542 48.1057C81.8582 49.2779 81.8582 53.0094 84.5542 54.1881Z" fill="#FB4B43"/>
<defs>
<linearGradient id="paint0_linear_298_3116" x1="0.000428933" y1="5.14905" x2="75.949" y2="130.979" gradientUnits="userSpaceOnUse">
<stop stop-color="#8DA2FF"/>
<stop offset="0.559902" stop-color="#5D63E1"/>
<stop offset="0.830261" stop-color="#5D63E1"/>
</linearGradient>
<linearGradient id="paint1_linear_298_3116" x1="0.000428933" y1="5.14905" x2="75.949" y2="130.979" gradientUnits="userSpaceOnUse">
<stop stop-color="#8DA2FF"/>
<stop offset="0.559902" stop-color="#5D63E1"/>
<stop offset="0.830261" stop-color="#5D63E1"/>
</linearGradient>
</defs>
</svg>
