<svg width="376" height="91" viewBox="0 0 376 91" fill="none" xmlns="http://www.w3.org/2000/svg">
<path d="M205.843 22.3144C212.088 22.3145 217.808 24.6767 222.239 28.5976V23.4218H235.533V74.7929H222.239V69.6171C217.808 73.5379 212.088 75.9002 205.843 75.9003C191.77 75.9003 180.361 63.9045 180.361 49.1073C180.361 34.3101 191.77 22.3144 205.843 22.3144ZM208.279 35.1571C200.692 35.1573 194.542 41.4031 194.542 49.1073C194.542 56.8116 200.692 63.0574 208.279 63.0575C215.866 63.0575 222.018 56.8117 222.018 49.1073C222.018 41.403 215.866 35.1571 208.279 35.1571Z" fill="#9BFFFF"/>
<path d="M0 23.4215L23.0437 74.7928H36.1166L58.9388 23.4215H43.6501L29.4694 57.7429L15.2886 23.4215H0Z" fill="#9BFFFF"/>
<path d="M243.067 6.81438V23.4215V74.7928H256.805V0.171539L243.067 6.81438Z" fill="#9BFFFF"/>
<path d="M83.0906 22.3144C89.3353 22.3145 95.0557 24.6767 99.4871 28.5976V23.4218H112.781V74.7929H99.4871V69.6171C95.0557 73.5379 89.3353 75.9002 83.0906 75.9003C69.0178 75.9003 57.6092 63.9045 57.6091 49.1073C57.6091 34.3101 69.0178 22.3144 83.0906 22.3144ZM85.5281 35.1571C77.941 35.1571 71.7898 41.403 71.7898 49.1073C71.7898 56.8117 77.941 63.0575 85.5281 63.0575C93.115 63.0573 99.2654 56.8115 99.2654 49.1073C99.2654 41.4031 93.115 35.1574 85.5281 35.1571Z" fill="#9BFFFF"/>
<path d="M174.379 50.2145C174.379 65.4928 160.287 76.7995 144.688 75.9001C130.616 75.9001 119.207 63.9043 119.207 49.1071C119.207 34.3099 130.616 22.3141 144.688 22.3141C150.727 22.3142 156.275 24.5235 160.642 28.2145V6.81412L174.379 0.171539V50.2145ZM147.125 35.1579C139.538 35.158 133.388 41.403 133.388 49.1071C133.388 56.8113 139.538 63.0571 147.125 63.0573C154.712 63.0573 160.863 56.8114 160.863 49.1071C160.863 41.4029 154.712 35.1579 147.125 35.1579Z" fill="#9BFFFF"/>
<path d="M269.58 60.1163L270.994 60.7314C273.496 61.8127 275.501 63.7929 276.615 66.2814L277.462 68.1789C277.568 68.4091 277.738 68.6041 277.951 68.7408C278.164 68.8775 278.412 68.9502 278.665 68.9502C278.919 68.9502 279.166 68.8775 279.38 68.7408C279.593 68.6041 279.762 68.4091 279.868 68.1789L280.665 66.3864C281.811 63.8354 283.891 61.8212 286.476 60.7589L288.003 60.1264C288.239 60.0335 288.442 59.8714 288.585 59.6614C288.728 59.4513 288.805 59.203 288.805 58.9488C288.805 58.6946 288.728 58.4463 288.585 58.2363C288.442 58.0263 288.239 57.8642 288.003 57.7713L286.479 57.1388C283.893 56.0776 281.812 54.0643 280.665 51.5138L279.866 49.7188C279.76 49.4893 279.59 49.2949 279.377 49.1588C279.164 49.0226 278.917 48.9502 278.664 48.9502C278.411 48.9502 278.164 49.0226 277.951 49.1588C277.738 49.2949 277.569 49.4893 277.462 49.7188L276.618 51.6188C275.503 54.1068 273.496 56.0861 270.994 57.1663L269.58 57.7813C268.546 58.2313 268.546 59.6638 269.58 60.1163Z" fill="#FF8A5B"/>
<path d="M324.286 22.3643C330.531 22.3644 336.251 24.7266 340.683 28.6475V23.4717H353.977V74.8428H340.683V69.667C336.251 73.5878 330.531 75.9501 324.286 75.9502C310.213 75.9502 298.805 63.9544 298.805 49.1572C298.805 34.36 310.213 22.3643 324.286 22.3643ZM326.724 35.207C319.137 35.207 312.985 41.4529 312.985 49.1572C312.985 56.8616 319.137 63.1074 326.724 63.1074C334.31 63.1072 340.461 56.8614 340.461 49.1572C340.461 41.453 334.31 35.2073 326.724 35.207Z" fill="#9BFFFF"/>
<path d="M375.248 74.8427V23.4714H361.51V74.8427H375.248Z" fill="#9BFFFF"/>
<path d="M361.51 18.8214V6.64284L375.248 0V11.9571L361.51 18.8214Z" fill="#9BFFFF"/>
</svg>
